<svg width="99" height="102" viewBox="0 0 99 102" fill="none" xmlns="http://www.w3.org/2000/svg">
    <path
        d="M87.7 91.7998H12.3C11 91.7998 10 90.7998 10 89.4998V40.8998C10 40.1998 10.3 39.4998 10.8 38.9998L48.5 8.1998C49.3 7.4998 50.6 7.4998 51.5 8.1998L89.2 39.0998C89.8 39.5998 90 40.1998 90 40.9998V89.5998C90.1 90.7998 89 91.7998 87.7 91.7998ZM14.7 87.0998H85.3V41.9998L50 13.0998L14.7 41.9998V87.0998Z"
        fill="black" />
    <path
        d="M45.6299 39.8857H49.1436C49.6959 39.8857 50.1436 40.3335 50.1436 40.8857V79.4902C50.1436 80.0425 49.6959 80.4902 49.1436 80.4902L45.6299 80.4902H54.376"
        stroke="currentColor" stroke-width="4.7" stroke-linecap="round" stroke-linejoin="round" />
    <rect x="46.8955" y="28.5039" width="5.14941" height="5.4207" rx="1" fill="black" />
</svg>