<svg width="100" height="100" viewBox="0 0 100 100" fill="none" xmlns="http://www.w3.org/2000/svg">
<path d="M54.8677 58.5733C53.1615 61.7387 48.2763 61.1892 45.8019 59.2143C41.3306 55.6457 42.4864 49.2674 46.547 45.87C52.5317 40.8629 62.0119 42.4592 66.9792 47.8594C73.6156 55.0742 71.2172 65.9189 63.3267 71.4876C53.3823 78.5057 38.8585 75.752 31.5282 66.8676C22.6408 56.0962 26.3352 40.6454 38.0881 32.9557C51.9491 23.8867 71.5892 27.821 81.253 40.2061C92.4167 54.5137 87.4123 74.6073 71.7856 84.4018C54.0214 95.5362 29.2398 90.4137 17.2544 74.521C3.80352 56.685 10.1236 31.9335 29.6291 20.0414C44.9226 10.7174 65.3526 10.7731 80.8802 19.6215" stroke="black" stroke-width="4.7" stroke-linecap="round" stroke-linejoin="round"/>
</svg>
