<?xml version="1.0" encoding="utf-8"?>
<svg viewBox="0 0 98.94 101.59" style="enable-background:new 0 0 100 100;" xmlns="http://www.w3.org/2000/svg">
  <path d="M 91.92 39.512 L 55.921 39.512 L 55.921 2.812 C 55.921 1.512 54.921 0.512 53.621 0.512 C 52.321 0.512 51.321 1.512 51.321 2.812 L 51.321 39.512 L 15.321 39.512 C 14.021 39.512 13.021 40.512 13.021 41.812 C 13.021 43.112 14.021 44.112 15.321 44.112 L 51.321 44.112 L 51.321 80.812 C 51.321 82.112 52.321 83.112 53.621 83.112 C 54.921 83.112 55.921 82.112 55.921 80.812 L 55.921 44.212 L 91.92 44.212 C 93.22 44.212 94.22 43.212 94.22 41.912 C 94.22 40.612 93.22 39.512 91.92 39.512 Z" style="transform-origin: 42.432px 41.851px;" transform="matrix(0.707114100456, 0.707099020481, -0.707099020481, 0.707114100456, 6.19546e-7, 0.000004206312)"/>
</svg>